<svg width="1600" height="720" viewBox="0 0 1600 720" fill="none" xmlns="http://www.w3.org/2000/svg">
  <defs>
    <linearGradient id="bg" x1="0" y1="0" x2="1" y2="1">
      <stop offset="0%" stop-color="#f7f5ef"/>
      <stop offset="100%" stop-color="#eef2ea"/>
    </linearGradient>
    <linearGradient id="desk" x1="0" y1="0" x2="0" y2="1">
      <stop offset="0%" stop-color="#d7b892"/>
      <stop offset="100%" stop-color="#c89e73"/>
    </linearGradient>
    <linearGradient id="marble" x1="0" y1="0" x2="1" y2="1">
      <stop offset="0%" stop-color="#f5f5f3"/>
      <stop offset="100%" stop-color="#e3e3e0"/>
    </linearGradient>
    <linearGradient id="cta" x1="0" y1="0" x2="1" y2="0">
      <stop offset="0%" stop-color="#2e6f4a"/>
      <stop offset="100%" stop-color="#285c4f"/>
    </linearGradient>
    <filter id="shadow" x="-20%" y="-20%" width="140%" height="140%">
      <feDropShadow dx="0" dy="16" stdDeviation="16" flood-color="#1a2230" flood-opacity="0.16"/>
    </filter>
  </defs>

  <rect width="1600" height="720" fill="url(#bg)"/>
  <rect x="0" y="520" width="1600" height="200" fill="url(#desk)"/>
  <rect x="0" y="520" width="1600" height="12" fill="#e8cfaf"/>

  <rect x="52" y="0" width="10" height="470" fill="#d2a36d"/>
  <rect x="320" y="0" width="10" height="470" fill="#d2a36d"/>
  <rect x="844" y="0" width="10" height="470" fill="#d2a36d"/>
  <rect x="1078" y="0" width="10" height="470" fill="#d2a36d"/>
  <rect x="112" y="0" width="210" height="470" fill="#fdfcf8"/>
  <rect x="380" y="0" width="462" height="470" fill="#fbfaf6"/>
  <rect x="902" y="0" width="174" height="470" fill="#fbfaf6"/>

  <rect x="1132" y="0" width="468" height="320" fill="#365a4e"/>
  <rect x="1132" y="0" width="468" height="320" fill-opacity="0.08" fill="#000000"/>
  <rect x="1132" y="0" width="156" height="106" fill="#294d43"/>
  <rect x="1288" y="0" width="156" height="106" fill="#3a6f62"/>
  <rect x="1444" y="0" width="156" height="106" fill="#28473d"/>
  <rect x="1132" y="106" width="156" height="106" fill="#3f2f61"/>
  <rect x="1288" y="106" width="156" height="106" fill="#365a4e"/>
  <rect x="1444" y="106" width="156" height="106" fill="#28473d"/>
  <rect x="1132" y="212" width="156" height="108" fill="#365a4e"/>
  <rect x="1288" y="212" width="156" height="108" fill="#3b684f"/>
  <rect x="1444" y="212" width="156" height="108" fill="#365a4e"/>

  <text x="1190" y="118" fill="#F8FBFF" font-family="Arial, Helvetica, sans-serif" font-size="70" font-weight="500" letter-spacing="8">FG EXATA</text>
  <path d="M1166 160C1180 149 1198 154 1210 144C1224 132 1244 137 1256 126" stroke="#9B80FF" stroke-width="3" fill="none" opacity="0.6"/>
  <rect x="1470" y="120" width="96" height="52" rx="6" fill="#ffffff"/>
  <rect x="1478" y="128" width="34" height="10" rx="5" fill="#dfe4ec"/>
  <path d="M1524 154L1548 138L1560 150" stroke="#547f72" stroke-width="3" fill="none"/>

  <rect x="290" y="286" width="242" height="58" rx="29" fill="url(#cta)" filter="url(#shadow)"/>
  <text x="364" y="323" fill="#ffffff" font-family="Arial, Helvetica, sans-serif" font-size="24" font-weight="500">Call To Action</text>

  <g filter="url(#shadow)">
    <rect x="1022" y="354" width="178" height="192" rx="10" fill="#f1f3ef"/>
    <rect x="1038" y="370" width="146" height="160" rx="8" fill="#ffffff"/>
    <circle cx="1111" cy="422" r="28" fill="#e7c5b0"/>
    <rect x="1070" y="452" width="82" height="62" rx="32" fill="#466b4d"/>
  </g>

  <g filter="url(#shadow)">
    <rect x="1010" y="378" width="166" height="104" rx="10" fill="#c7b69e"/>
    <rect x="1024" y="392" width="138" height="76" rx="6" fill="#eadfd0"/>
    <rect x="1054" y="468" width="78" height="14" rx="7" fill="#385d46"/>
  </g>

  <rect x="996" y="448" width="18" height="70" rx="9" fill="#2b302f"/>
  <rect x="984" y="516" width="42" height="10" rx="5" fill="#2b302f"/>

  <g filter="url(#shadow)">
    <circle cx="1114" cy="472" r="58" fill="#e9d0bd"/>
    <rect x="1072" y="510" width="84" height="94" rx="40" fill="#3a5c3f"/>
  </g>

  <g filter="url(#shadow)">
    <rect x="1258" y="448" width="112" height="20" rx="10" fill="#2a261f" fill-opacity="0.16"/>
    <rect x="1264" y="470" width="26" height="26" rx="13" fill="#2f2b27"/>
    <rect x="1340" y="470" width="26" height="26" rx="13" fill="#2f2b27"/>
    <rect x="1274" y="418" width="82" height="64" rx="8" fill="url(#marble)"/>
    <rect x="1276" y="420" width="78" height="60" rx="6" fill="#f4f3f0"/>
    <rect x="1286" y="430" width="58" height="20" rx="4" fill="#bba17d"/>
  </g>

  <g filter="url(#shadow)">
    <rect x="1470" y="406" width="112" height="84" rx="10" fill="#f2f4ef"/>
    <rect x="1482" y="418" width="88" height="60" rx="8" fill="#fdfdfc"/>
    <rect x="1500" y="432" width="18" height="34" rx="9" fill="#43693f"/>
    <path d="M1492 467C1500 455 1516 455 1524 467" stroke="#476e45" stroke-width="3" fill="none"/>
  </g>

  <g filter="url(#shadow)">
    <rect x="1276" y="532" width="152" height="84" rx="10" fill="#f6f4ef"/>
    <rect x="1278" y="534" width="148" height="80" rx="8" fill="#355849"/>
    <path d="M1302 562C1324 548 1350 570 1374 552C1394 538 1412 552 1422 544" stroke="#d7e4d6" stroke-width="2" fill="none"/>
  </g>

  <g filter="url(#shadow)">
    <rect x="1360" y="528" width="168" height="82" rx="10" fill="#f8f8f5"/>
    <rect x="1362" y="530" width="164" height="78" rx="8" fill="#5c447d"/>
    <path d="M1384 552C1404 544 1424 566 1446 552C1466 540 1484 556 1502 548" stroke="#ddd1ff" stroke-width="2" fill="none"/>
  </g>

  <g filter="url(#shadow)">
    <rect x="1448" y="530" width="176" height="84" rx="10" fill="#fafaf7"/>
    <rect x="1450" y="532" width="172" height="80" rx="8" fill="#fdfdfd"/>
    <text x="1504" y="568" fill="#2a2d34" font-family="Arial, Helvetica, sans-serif" font-size="20" font-weight="400">voucher</text>
    <rect x="1500" y="582" width="74" height="4" rx="2" fill="#dedfe4"/>
    <rect x="1500" y="594" width="56" height="4" rx="2" fill="#dedfe4"/>
    <rect x="1450" y="532" width="172" height="16" rx="8" fill="#3258a3"/>
    <path d="M1450 612H1622V532H1450V612Z" stroke="#e9ebef" stroke-width="2"/>
  </g>

  <g filter="url(#shadow)">
    <ellipse cx="1120" cy="654" rx="98" ry="28" fill="#d6b693" fill-opacity="0.35"/>
    <ellipse cx="1120" cy="654" rx="82" ry="22" fill="none" stroke="#cfaf8e" stroke-width="2"/>
    <text x="1060" y="660" fill="#9e7c55" font-family="Arial, Helvetica, sans-serif" font-size="14" font-weight="500">premium</text>
    <text x="1084" y="676" fill="#9e7c55" font-family="Arial, Helvetica, sans-serif" font-size="18" font-weight="500">club</text>
  </g>

  <g filter="url(#shadow)">
    <ellipse cx="602" cy="540" rx="94" ry="24" fill="#111111" fill-opacity="0.12"/>
    <rect x="552" y="452" width="98" height="74" rx="40" fill="#111111"/>
    <rect x="574" y="476" width="54" height="30" rx="6" fill="#1f1f1f"/>
  </g>

  <g filter="url(#shadow)">
    <rect x="186" y="500" width="188" height="114" rx="12" fill="#3f2f24"/>
    <rect x="196" y="510" width="168" height="94" rx="10" fill="#1f1f1f"/>
    <line x1="238" y1="534" x2="294" y2="562" stroke="#c8b28c" stroke-width="4"/>
    <rect x="232" y="540" width="8" height="8" rx="4" fill="#d6c39d"/>
    <rect x="290" y="562" width="8" height="8" rx="4" fill="#d6c39d"/>
  </g>

  <g filter="url(#shadow)">
    <rect x="632" y="556" width="54" height="8" rx="4" fill="#111111" fill-opacity="0.16"/>
    <rect x="634" y="514" width="122" height="12" rx="6" transform="rotate(-16 634 514)" fill="#44484e"/>
    <rect x="728" y="487" width="16" height="12" rx="6" transform="rotate(-16 728 487)" fill="#b4b6b9"/>
  </g>

  <g filter="url(#shadow)">
    <ellipse cx="1542" cy="460" rx="82" ry="24" fill="#7d9360" fill-opacity="0.14"/>
    <rect x="1488" y="382" width="108" height="132" rx="54" fill="#ffffff"/>
    <rect x="1518" y="344" width="48" height="72" rx="24" fill="#6a8b34"/>
    <circle cx="1510" cy="432" r="20" fill="#5a7a2f"/>
    <circle cx="1572" cy="446" r="22" fill="#638638"/>
    <circle cx="1534" cy="472" r="18" fill="#7a9a41"/>
  </g>
</svg>
